<mxfile host="app.diagrams.net" agent="Mozilla/5.0 (Macintosh; Intel Mac OS X 10_15_7) AppleWebKit/537.36 (KHTML, like Gecko) Chrome/139.0.0.0 Safari/537.36" version="28.2.0">
  <diagram name="Lab Inventory Schema" id="lab-inventory-schema">
    <mxGraphModel dx="3560" dy="992" grid="1" gridSize="10" guides="1" tooltips="1" connect="1" arrows="1" fold="1" page="1" pageScale="1" pageWidth="1600" pageHeight="1200" math="0" shadow="0">
      <root>
        <mxCell id="0" />
        <mxCell id="1" parent="0" />
        <mxCell id="user-table" value="user" style="swimlane;fontStyle=1;align=center;verticalAlign=top;childLayout=stackLayout;horizontal=1;startSize=26;horizontalStack=0;resizeParent=1;resizeParentMax=0;resizeLast=0;collapsible=1;marginBottom=0;fontSize=14;labelBackgroundColor=none;" parent="1" vertex="1">
          <mxGeometry x="100" y="120" width="280" height="320" as="geometry" />
        </mxCell>
        <mxCell id="user-pk" value="ðŸ”‘ id: INT (PK)" style="text;strokeColor=none;fillColor=none;align=left;verticalAlign=top;spacingLeft=4;spacingRight=4;overflow=hidden;rotatable=0;points=[[0,0.5],[1,0.5]];portConstraint=eastwest;fontStyle=1;labelBackgroundColor=none;" parent="user-table" vertex="1">
          <mxGeometry y="26" width="280" height="26" as="geometry" />
        </mxCell>
        <mxCell id="user-fields" value="user_id: VARCHAR(5) UNIQUE NULL&#xa;username: VARCHAR(150) UNIQUE NOT NULL&#xa;firstname: VARCHAR(50) NOT NULL&#xa;lastname: VARCHAR(50) NOT NULL&#xa;email: VARCHAR(254) UNIQUE NOT NULL&#xa;password: VARCHAR(128) NOT NULL&#xa;first_name: VARCHAR(150)&#xa;last_name: VARCHAR(150)&#xa;role: VARCHAR(20) DEFAULT &#39;regular_user&#39;&#xa;date_created: DATETIME NOT NULL&#xa;date_joined: DATETIME NOT NULL&#xa;last_login: DATETIME NULL&#xa;is_active: BOOLEAN DEFAULT 1&#xa;is_staff: BOOLEAN DEFAULT 0&#xa;is_superuser: BOOLEAN DEFAULT 0" style="text;strokeColor=none;fillColor=none;align=left;verticalAlign=top;spacingLeft=4;spacingRight=4;overflow=hidden;rotatable=0;points=[[0,0.5],[1,0.5]];portConstraint=eastwest;labelBackgroundColor=none;" parent="user-table" vertex="1">
          <mxGeometry y="52" width="280" height="268" as="geometry" />
        </mxCell>
        <mxCell id="product-table" value="product" style="swimlane;fontStyle=1;align=center;verticalAlign=top;childLayout=stackLayout;horizontal=1;startSize=26;horizontalStack=0;resizeParent=1;resizeParentMax=0;resizeLast=0;collapsible=1;marginBottom=0;fontSize=14;labelBackgroundColor=none;" parent="1" vertex="1">
          <mxGeometry x="1200" y="120" width="320" height="240" as="geometry" />
        </mxCell>
        <mxCell id="product-pk" value="ðŸ”‘ product_name: VARCHAR (PK)" style="text;strokeColor=none;fillColor=none;align=left;verticalAlign=top;spacingLeft=4;spacingRight=4;overflow=hidden;rotatable=0;points=[[0,0.5],[1,0.5]];portConstraint=eastwest;fontStyle=1;labelBackgroundColor=none;" parent="product-table" vertex="1">
          <mxGeometry y="26" width="320" height="26" as="geometry" />
        </mxCell>
        <mxCell id="product-fields" value="description: TEXT NULL&#xa;category: VARCHAR(100) NOT NULL&#xa;brand: VARCHAR(100) NULL&#xa;quantity_available: INT UNSIGNED DEFAULT 1&#xa;current_location: VARCHAR(200) DEFAULT &#39;Lab Storage&#39;&#xa;status: VARCHAR(20) DEFAULT &#39;available&#39;&#xa;notes: TEXT NULL&#xa;created_at: DATETIME NOT NULL&#xa;ðŸ”— created_by_id: INT (FK) NULL" style="text;strokeColor=none;fillColor=none;align=left;verticalAlign=top;spacingLeft=4;spacingRight=4;overflow=hidden;rotatable=0;points=[[0,0.5],[1,0.5]];portConstraint=eastwest;labelBackgroundColor=none;" parent="product-table" vertex="1">
          <mxGeometry y="52" width="320" height="188" as="geometry" />
        </mxCell>
        <mxCell id="borrow-table" value="borrow" style="swimlane;fontStyle=1;align=center;verticalAlign=top;childLayout=stackLayout;horizontal=1;startSize=26;horizontalStack=0;resizeParent=1;resizeParentMax=0;resizeLast=0;collapsible=1;marginBottom=0;fontSize=14;labelBackgroundColor=none;" parent="1" vertex="1">
          <mxGeometry x="600" y="450" width="260" height="194" as="geometry" />
        </mxCell>
        <mxCell id="borrow-fields" value="ðŸ”‘ borrow_id: INT (PK)&#xa;&#xa;ðŸ”— user_id: INT (FK) NOT NULL&#xa;ðŸ”— product_name: VARCHAR (FK) NOT NULL&#xa;borrow_date: DATETIME NOT NULL&#xa;expected_return_date: DATE NOT NULL&#xa;actual_return_date: DATE NULL&#xa;status: VARCHAR(20) DEFAULT &#39;pending&#39;&#xa;notes: TEXT NULL&#xa;ðŸ”— added_by_id: INT (FK) NULL&#xa;created_at: DATETIME NOT NULL" style="text;strokeColor=none;fillColor=none;align=left;verticalAlign=top;spacingLeft=4;spacingRight=4;overflow=hidden;rotatable=0;points=[[0,0.5],[1,0.5]];portConstraint=eastwest;labelBackgroundColor=none;" parent="borrow-table" vertex="1">
          <mxGeometry y="26" width="260" height="168" as="geometry" />
        </mxCell>
        <mxCell id="notification-table" value="notification" style="swimlane;fontStyle=1;align=center;verticalAlign=top;childLayout=stackLayout;horizontal=1;startSize=26;horizontalStack=0;resizeParent=1;resizeParentMax=0;resizeLast=0;collapsible=1;marginBottom=0;fontSize=14;labelBackgroundColor=none;" parent="1" vertex="1">
          <mxGeometry x="600" y="750" width="300" height="240" as="geometry" />
        </mxCell>
        <mxCell id="notification-pk" value="ðŸ”‘ notification_id: INT (PK)" style="text;strokeColor=none;fillColor=none;align=left;verticalAlign=top;spacingLeft=4;spacingRight=4;overflow=hidden;rotatable=0;points=[[0,0.5],[1,0.5]];portConstraint=eastwest;fontStyle=1;labelBackgroundColor=none;" parent="notification-table" vertex="1">
          <mxGeometry y="26" width="300" height="26" as="geometry" />
        </mxCell>
        <mxCell id="notification-fields" value="ðŸ”— recipient_user_id: INT (FK) NOT NULL&#xa;ðŸ”— related_user_id: INT (FK) NULL&#xa;ðŸ”— related_borrow_id: INT (FK) NULL&#xa;notification_type: VARCHAR(30) DEFAULT &#39;general&#39;&#xa;priority: VARCHAR(10) DEFAULT &#39;medium&#39;&#xa;title: VARCHAR(200) DEFAULT &#39;Notification&#39;&#xa;message: TEXT NOT NULL&#xa;created_at: DATETIME NOT NULL&#xa;is_read: BOOLEAN DEFAULT 0&#xa;read_at: DATETIME NULL" style="text;strokeColor=none;fillColor=none;align=left;verticalAlign=top;spacingLeft=4;spacingRight=4;overflow=hidden;rotatable=0;points=[[0,0.5],[1,0.5]];portConstraint=eastwest;labelBackgroundColor=none;" parent="notification-table" vertex="1">
          <mxGeometry y="52" width="300" height="188" as="geometry" />
        </mxCell>
        <mxCell id="labreport-table" value="lab_report" style="swimlane;fontStyle=1;align=center;verticalAlign=top;childLayout=stackLayout;horizontal=1;startSize=26;horizontalStack=0;resizeParent=1;resizeParentMax=0;resizeLast=0;collapsible=1;marginBottom=0;fontSize=14;labelBackgroundColor=none;" parent="1" vertex="1">
          <mxGeometry x="60" y="750" width="280" height="200" as="geometry" />
        </mxCell>
        <mxCell id="labreport-pk" value="ðŸ”‘ report_id: INT (PK)" style="text;strokeColor=none;fillColor=none;align=left;verticalAlign=top;spacingLeft=4;spacingRight=4;overflow=hidden;rotatable=0;points=[[0,0.5],[1,0.5]];portConstraint=eastwest;fontStyle=1;labelBackgroundColor=none;" parent="labreport-table" vertex="1">
          <mxGeometry y="26" width="280" height="26" as="geometry" />
        </mxCell>
        <mxCell id="labreport-fields" value="ðŸ”— admin_user_id: INT (FK) NOT NULL&#xa;user_activity_tracking: TEXT NULL&#xa;borrowing_overview: TEXT NULL&#xa;system_health_analysis: TEXT NULL&#xa;equipment_categories: TEXT NULL&#xa;report_type: VARCHAR(50) DEFAULT &#39;general&#39;&#xa;created_at: DATETIME NOT NULL" style="text;strokeColor=none;fillColor=none;align=left;verticalAlign=top;spacingLeft=4;spacingRight=4;overflow=hidden;rotatable=0;points=[[0,0.5],[1,0.5]];portConstraint=eastwest;labelBackgroundColor=none;" parent="labreport-table" vertex="1">
          <mxGeometry y="52" width="280" height="148" as="geometry" />
        </mxCell>
        <mxCell id="rel1" value="" style="endArrow=ERmany;html=1;rounded=0;exitX=1;exitY=0.5;exitDx=0;exitDy=0;entryX=0;entryY=0.25;entryDx=0;entryDy=0;strokeWidth=2;labelBackgroundColor=none;fontColor=default;" parent="1" source="user-table" target="borrow-table" edge="1">
          <mxGeometry relative="1" as="geometry" />
        </mxCell>
        <mxCell id="rel1-label" value="1:N (user_id)" style="text;strokeColor=none;fillColor=none;align=center;verticalAlign=middle;fontStyle=1;fontSize=10;labelBackgroundColor=none;" parent="1" vertex="1">
          <mxGeometry x="400" y="300" width="80" height="20" as="geometry" />
        </mxCell>
        <mxCell id="rel2" value="" style="endArrow=ERmany;html=1;rounded=0;exitX=0;exitY=0.5;exitDx=0;exitDy=0;entryX=1;entryY=0.25;entryDx=0;entryDy=0;strokeWidth=2;labelBackgroundColor=none;fontColor=default;" parent="1" source="product-table" target="borrow-table" edge="1">
          <mxGeometry relative="1" as="geometry" />
        </mxCell>
        <mxCell id="rel2-label" value="1:N (product_id)" style="text;strokeColor=none;fillColor=none;align=center;verticalAlign=middle;fontStyle=1;fontSize=10;labelBackgroundColor=none;" parent="1" vertex="1">
          <mxGeometry x="950" y="300" width="90" height="20" as="geometry" />
        </mxCell>
        <mxCell id="rel3" value="" style="endArrow=ERmany;html=1;rounded=0;exitX=0.5;exitY=1;exitDx=0;exitDy=0;entryX=0;entryY=0.25;entryDx=0;entryDy=0;strokeWidth=2;labelBackgroundColor=none;fontColor=default;" parent="1" source="user-table" target="notification-table" edge="1">
          <mxGeometry relative="1" as="geometry">
            <Array as="points">
              <mxPoint x="300" y="540" />
              <mxPoint x="400" y="540" />
              <mxPoint x="400" y="810" />
            </Array>
          </mxGeometry>
        </mxCell>
        <mxCell id="rel3-label" value="1:N (recipient_user_id)" style="text;strokeColor=none;fillColor=none;align=center;verticalAlign=middle;fontStyle=1;fontSize=10;labelBackgroundColor=none;" parent="1" vertex="1">
          <mxGeometry x="320" y="650" width="120" height="20" as="geometry" />
        </mxCell>
        <mxCell id="rel4" value="" style="endArrow=ERmany;html=1;rounded=0;exitX=0.5;exitY=1;exitDx=0;exitDy=0;entryX=0;entryY=0.75;entryDx=0;entryDy=0;strokeWidth=2;labelBackgroundColor=none;fontColor=default;" parent="1" source="user-table" target="notification-table" edge="1">
          <mxGeometry relative="1" as="geometry">
            <Array as="points">
              <mxPoint x="530" y="520" />
            </Array>
          </mxGeometry>
        </mxCell>
        <mxCell id="rel4-label" value="1:N (related_user_id)" style="text;strokeColor=none;fillColor=none;align=center;verticalAlign=middle;fontStyle=1;fontSize=10;labelBackgroundColor=none;" parent="1" vertex="1">
          <mxGeometry x="420" y="537" width="110" height="20" as="geometry" />
        </mxCell>
        <mxCell id="rel5" value="" style="endArrow=ERmany;html=1;rounded=0;exitX=0.5;exitY=1;exitDx=0;exitDy=0;entryX=0.5;entryY=0;entryDx=0;entryDy=0;strokeWidth=2;labelBackgroundColor=none;fontColor=default;" parent="1" source="borrow-table" target="notification-table" edge="1">
          <mxGeometry relative="1" as="geometry" />
        </mxCell>
        <mxCell id="rel5-label" value="1:N (related_borrow_id)" style="text;strokeColor=none;fillColor=none;align=center;verticalAlign=middle;fontStyle=1;fontSize=10;labelBackgroundColor=none;" parent="1" vertex="1">
          <mxGeometry x="650" y="710" width="120" height="20" as="geometry" />
        </mxCell>
        <mxCell id="rel6" value="" style="endArrow=ERmany;html=1;rounded=0;exitX=1;exitY=0.25;exitDx=0;exitDy=0;entryX=0;entryY=0.5;entryDx=0;entryDy=0;strokeWidth=2;labelBackgroundColor=none;fontColor=default;" parent="1" source="user-table" target="product-pk" edge="1">
          <mxGeometry relative="1" as="geometry" />
        </mxCell>
        <mxCell id="rel6-label" value="1:N (created_by_id)" style="text;strokeColor=none;fillColor=none;align=center;verticalAlign=middle;fontStyle=1;fontSize=10;labelBackgroundColor=none;" parent="1" vertex="1">
          <mxGeometry x="660" y="150" width="100" height="20" as="geometry" />
        </mxCell>
        <mxCell id="rel7" value="" style="endArrow=ERmany;html=1;rounded=0;exitX=0.993;exitY=0.815;exitDx=0;exitDy=0;entryX=0.25;entryY=0;entryDx=0;entryDy=0;strokeWidth=2;labelBackgroundColor=none;fontColor=default;exitPerimeter=0;" parent="1" source="user-fields" target="borrow-table" edge="1">
          <mxGeometry relative="1" as="geometry" />
        </mxCell>
        <mxCell id="rel7-label" value="1:N (added_by_id)" style="text;strokeColor=none;fillColor=none;align=center;verticalAlign=middle;fontStyle=1;fontSize=10;labelBackgroundColor=none;" parent="1" vertex="1">
          <mxGeometry x="390" y="430" width="100" height="20" as="geometry" />
        </mxCell>
        <mxCell id="rel8" value="" style="endArrow=ERmany;html=1;rounded=0;exitX=0.5;exitY=1;exitDx=0;exitDy=0;entryX=0.5;entryY=0;entryDx=0;entryDy=0;strokeWidth=2;labelBackgroundColor=none;fontColor=default;" parent="1" source="user-table" target="labreport-table" edge="1">
          <mxGeometry relative="1" as="geometry" />
        </mxCell>
        <mxCell id="rel8-label" value="1:N (admin manages)" style="text;strokeColor=none;fillColor=none;align=center;verticalAlign=middle;fontStyle=1;fontSize=10;labelBackgroundColor=none;" parent="1" vertex="1">
          <mxGeometry x="110" y="570" width="120" height="20" as="geometry" />
        </mxCell>
        <mxCell id="status-table1" value="USER Role " style="swimlane;fontStyle=1;align=center;verticalAlign=top;childLayout=stackLayout;horizontal=1;startSize=26;horizontalStack=0;resizeParent=1;resizeParentMax=0;resizeLast=0;collapsible=1;marginBottom=0;fontSize=12;labelBackgroundColor=none;" parent="1" vertex="1">
          <mxGeometry x="-20" y="520" width="150" height="80" as="geometry" />
        </mxCell>
        <mxCell id="status-fields1" value="â€¢ admin&#xa;â€¢ regular_user" style="text;strokeColor=none;fillColor=none;align=left;verticalAlign=top;spacingLeft=4;spacingRight=4;overflow=hidden;rotatable=0;points=[[0,0.5],[1,0.5]];portConstraint=eastwest;fontSize=10;labelBackgroundColor=none;" parent="status-table1" vertex="1">
          <mxGeometry y="26" width="150" height="54" as="geometry" />
        </mxCell>
        <mxCell id="status-table2" value="PRODUCT Status Values" style="swimlane;fontStyle=1;align=center;verticalAlign=top;childLayout=stackLayout;horizontal=1;startSize=26;horizontalStack=0;resizeParent=1;resizeParentMax=0;resizeLast=0;collapsible=1;marginBottom=0;fontSize=12;labelBackgroundColor=none;" parent="1" vertex="1">
          <mxGeometry x="1200" y="400" width="150" height="100" as="geometry" />
        </mxCell>
        <mxCell id="status-fields2" value="â€¢ available&#xa;â€¢ borrowed&#xa;â€¢ maintenance&#xa;â€¢ damaged" style="text;strokeColor=none;fillColor=none;align=left;verticalAlign=top;spacingLeft=4;spacingRight=4;overflow=hidden;rotatable=0;points=[[0,0.5],[1,0.5]];portConstraint=eastwest;fontSize=10;labelBackgroundColor=none;" parent="status-table2" vertex="1">
          <mxGeometry y="26" width="150" height="74" as="geometry" />
        </mxCell>
        <mxCell id="status-table3" value="BORROW Status" style="swimlane;fontStyle=1;align=center;verticalAlign=top;childLayout=stackLayout;horizontal=1;startSize=26;horizontalStack=0;resizeParent=1;resizeParentMax=0;resizeLast=0;collapsible=1;marginBottom=0;fontSize=12;labelBackgroundColor=none;" parent="1" vertex="1">
          <mxGeometry x="725" y="310" width="150" height="120" as="geometry" />
        </mxCell>
        <mxCell id="status-fields3" value="â€¢ pending&#xa;â€¢ approved&#xa;â€¢ active&#xa;â€¢ returned&#xa;â€¢ overdue" style="text;strokeColor=none;fillColor=none;align=left;verticalAlign=top;spacingLeft=4;spacingRight=4;overflow=hidden;rotatable=0;points=[[0,0.5],[1,0.5]];portConstraint=eastwest;fontSize=10;labelBackgroundColor=none;" parent="status-table3" vertex="1">
          <mxGeometry y="26" width="150" height="94" as="geometry" />
        </mxCell>
        <mxCell id="status-table4" value="NOTIFICATION Type" style="swimlane;fontStyle=1;align=center;verticalAlign=top;childLayout=stackLayout;horizontal=1;startSize=26;horizontalStack=0;resizeParent=1;resizeParentMax=0;resizeLast=0;collapsible=1;marginBottom=0;fontSize=12;labelBackgroundColor=none;" parent="1" vertex="1">
          <mxGeometry x="1020" y="740" width="170" height="80" as="geometry" />
        </mxCell>
        <mxCell id="status-fields4" value="â€¢ user_registration&#xa;â€¢ return_reminder&#xa;â€¢ overdue_alert&#xa;" style="text;strokeColor=none;fillColor=none;align=left;verticalAlign=top;spacingLeft=4;spacingRight=4;overflow=hidden;rotatable=0;points=[[0,0.5],[1,0.5]];portConstraint=eastwest;fontSize=10;labelBackgroundColor=none;" parent="status-table4" vertex="1">
          <mxGeometry y="26" width="170" height="54" as="geometry" />
        </mxCell>
        <mxCell id="legend1" value="ðŸ”‘ Primary Key" style="text;strokeColor=none;fillColor=none;align=left;verticalAlign=top;spacingLeft=4;spacingRight=4;overflow=hidden;rotatable=0;points=[[0,0.5],[1,0.5]];portConstraint=eastwest;fontStyle=1;fontSize=12;labelBackgroundColor=none;" parent="1" vertex="1">
          <mxGeometry x="1300" y="610" width="100" height="20" as="geometry" />
        </mxCell>
        <mxCell id="legend2" value="ðŸ”— Foreign Key" style="text;strokeColor=none;fillColor=none;align=left;verticalAlign=top;spacingLeft=4;spacingRight=4;overflow=hidden;rotatable=0;points=[[0,0.5],[1,0.5]];portConstraint=eastwest;fontStyle=1;fontSize=12;labelBackgroundColor=none;" parent="1" vertex="1">
          <mxGeometry x="1300" y="630" width="100" height="20" as="geometry" />
        </mxCell>
      </root>
    </mxGraphModel>
  </diagram>
</mxfile>
